<?xml version="1.0" standalone="no"?>
<!DOCTYPE svg PUBLIC "-//W3C//DTD SVG 20010904//EN"
 "http://www.w3.org/TR/2001/REC-SVG-20010904/DTD/svg10.dtd">
<svg version="1.0" xmlns="http://www.w3.org/2000/svg"
 width="512.000000pt" height="386.000000pt" viewBox="0 0 512.000000 386.000000"
 preserveAspectRatio="xMidYMid meet">
<metadata>
Created by potrace 1.14, written by Peter Selinger 2001-2017
</metadata>
<g transform="translate(0.000000,386.000000) scale(0.100000,-0.100000)"
fill="#FFDF00" stroke="none">
<path d="M0 1930 l0 -1930 2560 0 2560 0 0 1930 0 1930 -2560 0 -2560 0 0
-1930z m3623 645 c-678 -683 -930 -931 -963 -947 -26 -13 -63 -22 -90 -22 -84
0 -122 28 -361 272 -122 125 -533 541 -912 925 l-689 697 1967 0 1967 0 -919
-925z m-2115 -496 l144 -147 -642 -656 c-354 -361 -644 -656 -646 -656 -2 0
-4 590 -4 1312 l0 1311 502 -509 c276 -280 567 -575 646 -655z m3262 -171 l0
-1301 -263 269 c-145 148 -434 444 -644 659 l-380 389 636 643 c350 353 639
642 644 643 4 0 7 -586 7 -1302z m-2546 -538 c149 -102 396 -125 583 -55 90
34 109 49 274 213 l147 144 239 -243 c724 -739 1038 -1062 1041 -1070 2 -5
-793 -9 -1948 -9 l-1952 0 93 98 c52 54 344 354 649 666 l555 567 137 -140
c75 -76 157 -153 182 -171z"/>
</g>
</svg>
