<?xml version="1.0" encoding="utf-8"?>
<!-- Generator: Adobe Illustrator 21.0.2, SVG Export Plug-In . SVG Version: 6.00 Build 0)  -->
<svg version="1.1" id="_x30_" xmlns="http://www.w3.org/2000/svg" xmlns:xlink="http://www.w3.org/1999/xlink" x="0px" y="0px"
	 viewBox="0 0 336 298.5" style="enable-background:new 0 0 336 298.5;" xml:space="preserve">

  <style type="text/css">
	.st0{fill: hsl(211, 100%, 33%)}
	.st1{fill: gold;}
	.st2{font-family:'MyriadPro-Regular';}
	.st3{font-size:12px;}
</style>

<g>
	<g id="XMLID_1_">
		<g>
			<path class="st0 outer" d="M148.7,133.6c2.9,1.3,5.9,2.3,9.1,2.9c-1.6-2.4-3.4-4.6-5.4-6.5c-0.4-0.4-0.8-0.7-1.1-1.1l2.4-1
				c0.4,0.4,0.8,0.8,1.2,1.2c1.8,1.7,3.7,3.3,5.8,4.6c-0.5-2.8-1.4-5.4-2.4-8l2.1-0.9c1.1,2.6,2.4,5,3.9,7.4
				c0.6-2.8,0.8-5.6,0.8-8.4l2.3,0c0,2.8,0.3,5.6,0.8,8.3c1.6-2.3,2.9-4.8,3.9-7.4l2.1,0.9c-1.1,2.6-1.9,5.2-2.4,8
				c2.1-1.4,4-2.9,5.8-4.6l2.3,1c-1.9,2-3.7,4.1-5.3,6.4c3.1-0.6,6.2-1.6,9.1-2.9l0.9,2.2c-2.9,1.1-5.8,2.6-8.4,4.4
				c2.8,0.5,5.6,0.8,8.4,0.8l0,2.3c-2.8,0-5.6,0.3-8.4,0.8c2.7,1.8,5.5,3.2,8.4,4.4l-0.9,2.2c-2.9-1.3-5.9-2.3-9.1-2.9
				c1.6,2.3,3.3,4.5,5.3,6.4l-1.6,1.8c-2-2-4.2-3.8-6.5-5.4c0.5,2.8,1.4,5.4,2.4,8l-2.1,0.9c-1.1-2.6-2.4-5-3.9-7.4
				c-0.5,2.8-0.8,5.6-0.8,8.3l-2.3,0c0-2.8-0.3-5.6-0.8-8.4c-1.6,2.3-2.9,4.8-3.9,7.4l-2.1-0.9c1-2.5,1.9-5.2,2.4-8
				c-2.1,1.4-4,2.9-5.8,4.6c-0.4,0.4-0.8,0.8-1.2,1.2l-2.4-1c0.4-0.4,0.8-0.7,1.1-1.1c2-2,3.8-4.2,5.4-6.5c-3.1,0.6-6.2,1.6-9.1,2.9
				l-0.9-2.2c2.9-1.1,5.8-2.6,8.4-4.4c-2.8-0.6-5.6-0.8-8.3-0.8l0-2.3c2.8,0,5.6-0.3,8.3-0.8c-2.7-1.8-5.5-3.2-8.4-4.4L148.7,133.6z
				"/>
			<path class="st0 inner" d="M63.9,83c3.5,2.2,3.8,6.2,3.3,10.6c2-2.1,4.1-3.9,6.4-5c-0.2-2.5,0.3-5.3,1.1-8C71.1,83.2,67.6,85,63.9,83z
				 M83.5,89.3c3-4.7,6.4-9.2,10.2-13.3c-4.7-3.7-9-2.2-13.1,0.6C79.1,81.2,78.7,85.7,83.5,89.3z M82.7,58.6
				c2.8,3.1,2.1,6.9,0.4,11.1c2.4-1.5,5-2.7,7.5-3.2c0.5-2.5,1.7-5,3.2-7.5C89.6,60.6,85.7,61.4,82.7,58.6z M125,241.7
				c4.9,0.4,9.3-0.5,11.6-6c-5.3-1.7-10.5-3.8-15.5-6.4C118.7,234.7,121.2,238.5,125,241.7z M79.1,96.9c-5.5-2.3-9.2,0.2-12.5,3.9
				c-0.4,4.9,0.5,9.3,6,11.6C74.4,107.1,76.5,101.9,79.1,96.9z M92.1,191.6c2.8,2.7,5.9,5,9.3,6.8c-1-3.9-1.5-8-1.5-12
				c-3.7-1.6-7.3-3.6-10.5-6C89.8,184.2,90.7,188,92.1,191.6z M89.4,195.6c6.3,9.1,14.2,17,23.3,23.4c-3.9-4.2-6.9-9-9.1-14.2
				C98.3,202.5,93.5,199.5,89.4,195.6z M89.3,174c3.3,3,6.9,5.4,10.9,7.3c0.5-4.5,1.6-9,3.4-13.2c-4.2-1.8-8.2-4.1-11.7-6.9
				C90.3,165.2,89.5,169.6,89.3,174z M195.8,97.8c4.3-1.8,8.9-2.9,13.5-3.4c0-4.6-0.7-9.2-2.1-13.6c-4.6,0.3-9.1,1.4-13.4,3.2
				C195.1,88.5,195.8,93.2,195.8,97.8z M196.8,28c-1.2,4-5,5.2-9.4,5.9c2.5,1.4,4.8,3,6.5,4.9c2.4-0.8,5.2-1.1,8-1
				C198.5,35,195.8,32.1,196.8,28z M268.5,83c-3.7,1.9-7.2,0.2-10.8-2.4c0.8,2.8,1.3,5.5,1.1,8c2.3,1.1,4.4,2.9,6.4,5
				C264.7,89.2,265,85.3,268.5,83z M268.5,201.2c-3.5-2.2-3.8-6.2-3.3-10.6c-2,2.1-4.1,3.9-6.4,5c0.1,2.5-0.3,5.3-1.1,8
				C261.3,201,264.8,199.2,268.5,201.2z M209,184.9c-0.6-4.7-1.9-9.3-3.9-13.5c-4.4-0.5-8.8-1.6-12.9-3.3c1.7,4.1,2.8,8.5,3.3,12.9
				C199.7,183,204.3,184.3,209,184.9z M193.7,200.2c4.3,1.8,8.8,2.9,13.4,3.3c1.4-4.4,2.2-9,2.1-13.6c-4.7-0.5-9.2-1.6-13.5-3.4
				C195.8,191.1,195.1,195.7,193.7,200.2z M140.3,79.5c1.8-4.2,4.1-8.2,6.9-11.7c-4.1-1.5-8.5-2.4-12.9-2.6c-3,3.3-5.4,7-7.3,11
				C131.6,76.6,136,77.7,140.3,79.5z M132.3,128.1c-3.2-3.2-5.9-6.8-8-10.7c-4.7-0.3-9.4,0.3-14,1.5c2.3,4.1,5.3,7.8,8.8,11
				C123.4,128.7,127.8,128.1,132.3,128.1z M251.7,207.7c1.6-4.7,1.9-9.2-2.8-12.8c-3,4.7-6.4,9.2-10.2,13.3
				C243.4,212,247.6,210.5,251.7,207.7z M207.4,241.7c3.7-3.2,6.3-7,3.9-12.5c-5,2.6-10.2,4.7-15.5,6.4
				C198.1,241.2,202.5,242,207.4,241.7z M202.9,142.1c4.1,1.7,8,4,11.5,6.8c4.5-1.6,8.6-3.9,12.3-6.8c-3.7-2.9-7.9-5.2-12.3-6.8
				C210.9,138.1,207,140.4,202.9,142.1z M210.5,75.8c4.1,0,8.1,0.5,12,1.5c-1.8-3.4-4.1-6.5-6.8-9.3c-3.6-1.4-7.4-2.3-11.2-2.7
				C206.9,68.6,208.9,72.1,210.5,75.8z M208.1,166.8c4.7,0.3,9.4-0.3,14-1.5c-2.3-4.1-5.3-7.8-8.8-11c-4.3,1.2-8.8,1.9-13.2,1.9
				C203.2,159.3,205.9,162.9,208.1,166.8z M104.9,101.1c0.4,4.6,1.5,9.2,3.3,13.4c4.5-1.4,9.1-2,13.8-2c-1.8-4.3-2.9-8.9-3.4-13.5
				C113.9,99,109.3,99.7,104.9,101.1z M100.6,227.6c4.7,1.6,9.2,1.9,12.8-2.8c-4.7-3-9.2-6.4-13.3-10.2
				C96.3,219.3,97.8,223.5,100.6,227.6z M52.1,172.7c4.1-0.9,7,1.7,9.8,5.2c-0.1-2.9,0.2-5.7,1-8.1c-1.9-1.7-3.5-4-4.9-6.5
				C57.3,167.7,56.1,171.5,52.1,172.7z M58,120.9c1.4-2.5,3-4.8,4.9-6.5c-0.8-2.4-1-5.2-1-8c-2.8,3.5-5.8,6.1-9.8,5.2
				C56.1,112.8,57.3,116.5,58,120.9z M103.6,116.2c-1.8-4.2-2.9-8.7-3.4-13.2c-4,1.8-7.7,4.3-10.9,7.3c0.2,4.4,1.1,8.8,2.6,12.9
				C95.4,120.3,99.4,117.9,103.6,116.2z M93.9,156.5c3.5,3,7.5,5.4,11.8,7.2c2.2-4.1,5-7.9,8.3-11.2c-4.3-1.8-8.4-4.2-12-7.2
				C98.7,148.6,96,152.4,93.9,156.5z M172.2,227.7c3.7,1.1,7.5,1.7,11.4,1.8c3.5-1.6,6.8-3.6,9.8-6c-4-0.6-7.9-1.6-11.7-3.2
				C178.9,223.1,175.7,225.6,172.2,227.7z M169.4,206.3c3.3,3.3,7,6,11.2,8.1c3-3.5,5.4-7.5,7.2-11.8c-4.1-2.2-7.9-5-11.2-8.3
				C174.8,198.6,172.4,202.7,169.4,206.3z M80.7,207.7c4.1,2.8,8.3,4.3,13.1,0.6c-3.8-4.1-7.2-8.6-10.2-13.3
				C78.7,198.6,79.1,203.1,80.7,207.7z M82.7,225.6c3.1-2.8,6.9-2.1,11.1-0.5c-1.5-2.4-2.7-5-3.2-7.4c-2.5-0.5-5-1.7-7.5-3.2
				C84.7,218.7,85.5,222.6,82.7,225.6z M82.9,142.1c1.9,4,4.3,7.7,7.3,10.9c2.2-4,4.9-7.7,8.2-10.9c-3.2-3.2-6-6.9-8.2-10.9
				C87.3,134.4,84.8,138.1,82.9,142.1z M84.9,169.3c0.6-4,1.6-7.9,3.2-11.7c-2.9-2.9-5.3-6.1-7.4-9.6c-1.1,3.7-1.7,7.5-1.8,11.4
				C80.4,163,82.4,166.3,84.9,169.3z M88,126.6c-1.6-3.8-2.6-7.7-3.2-11.7c-2.4,3-4.5,6.3-6,9.8c0.1,3.9,0.7,7.7,1.8,11.4
				C82.7,132.6,85.2,129.4,88,126.6z M155.3,66.2c4,2.2,7.7,4.9,10.9,8.2c3.2-3.2,6.9-6,10.9-8.2c-3.2-3-6.9-5.5-10.9-7.3
				C162.2,60.7,158.5,63.2,155.3,66.2z M166.2,24c-0.1,4.2-3.5,6.4-7.5,8.2c2.8,0.7,5.4,1.6,7.5,3c2.1-1.4,4.7-2.4,7.5-3
				C169.7,30.3,166.3,28.2,166.2,24z M158.7,252.1c4.1,1.8,7.4,4,7.5,8.2c0.2-4.2,3.5-6.3,7.5-8.2c-2.8-0.7-5.4-1.6-7.5-3
				C164.1,250.5,161.5,251.4,158.7,252.1z M186.2,50.6c5.2,2.4,9.9,5.6,13.9,9.7c5.7,0,11.3,1,16.6,3C207.4,57.3,197,53,186.2,50.6z
				 M280.3,172.7c-4-1.2-5.2-5-5.9-9.4c-1.4,2.5-3,4.8-4.9,6.5c0.8,2.4,1.1,5.2,1,8.1C273.3,174.4,276.2,171.7,280.3,172.7z
				 M274.4,120.9c0.7-4.4,2-8.2,5.9-9.4c-4.1,0.9-7-1.7-9.8-5.2c0.1,2.9-0.2,5.7-1,8C271.4,116.1,273,118.4,274.4,120.9z
				 M284.3,142.1c-4.2-0.2-6.4-3.5-8.2-7.5c-0.6,2.8-1.6,5.4-3,7.5c1.4,2.1,2.4,4.7,3,7.5C278,145.6,280.1,142.3,284.3,142.1z
				 M262,163.2c5.9,0.8,8.9-2.6,11-7c-0.9-4.8-2.9-8.9-8.8-9.6C264,152.2,263.2,157.7,262,163.2z M253.3,187.3
				c5.5,2.4,9.2-0.2,12.5-3.9c0.4-4.9-0.5-9.3-6-11.6C258,177.1,255.9,182.3,253.3,187.3z M258.4,158.6c2-10.9,2-22.1,0-33
				c-0.2,5.7-1.4,11.3-3.6,16.5C256.9,147.4,258.1,152.9,258.4,158.6z M110.3,165.3c4.6,1.3,9.3,1.8,14,1.5c2.2-3.9,4.9-7.5,8-10.7
				c-4.5,0-8.9-0.6-13.2-1.9C115.6,157.4,112.6,161.1,110.3,165.3z M127.9,218.9c-2.4-3.2-4.5-6.8-6-10.5c-4.1,0-8.1-0.5-12-1.5
				c1.8,3.4,4.1,6.6,6.8,9.3C120.3,217.6,124.1,218.5,127.9,218.9z M107.3,201c4.2,1.5,8.5,2.3,12.9,2.5c-1.3-4.4-1.9-8.9-1.9-13.5
				c-4.6,0-9.1-0.7-13.5-1.9C105,192.5,105.8,196.8,107.3,201z M151.8,214.4c4.1-2.1,7.9-4.8,11.1-8.1c-2.9-3.6-5.4-7.6-7.1-12
				c-3.3,3.3-7.1,6.1-11.2,8.3C146.4,206.9,148.8,210.9,151.8,214.4z M152.2,108.2c0-4.5,0.6-8.9,1.9-13.2c-3.2-3.5-6.9-6.5-11-8.8
				c-1.3,4.6-1.8,9.3-1.5,14C145.4,102.4,149,105.1,152.2,108.2z M143,198c4.1-2.3,7.8-5.3,11-8.8c-1.2-4.3-1.9-8.8-1.9-13.2
				c-3.2,3.2-6.8,5.9-10.7,8C141.2,188.7,141.8,193.5,143,198z M201.9,246.4c-2.9,0.1-5.7-0.2-8-1c-1.7,1.9-4,3.5-6.5,4.9
				c4.4,0.7,8.2,1.9,9.4,5.9C195.8,252.1,198.5,249.2,201.9,246.4z M192.1,79.5c4.2-1.8,8.7-2.9,13.2-3.4c-1.8-4-4.3-7.7-7.3-11
				c-4.4,0.2-8.8,1.1-12.9,2.6C188,71.3,190.4,75.3,192.1,79.5z M189.4,198c1.3-4.6,1.8-9.3,1.5-14c-3.9-2.2-7.5-4.9-10.7-8
				c0,4.5-0.6,8.9-1.9,13.2C181.5,192.7,185.2,195.7,189.4,198z M63.9,201.2c3.7-2,7.2-0.2,10.8,2.4c-0.8-2.7-1.3-5.5-1.1-8
				c-2.3-1.1-4.4-2.9-6.4-5C67.7,195,67.4,199,63.9,201.2z M242.1,153c3-3.2,5.5-6.9,7.3-10.9c-1.9-4-4.3-7.7-7.3-10.9
				c-2.2,4-4.9,7.7-8.2,10.9C237.2,145.3,239.9,149,242.1,153z M66.6,183.3c3.2,3.7,7,6.3,12.5,3.9c-2.6-5-4.7-10.1-6.4-15.5
				C67.1,174,66.3,178.4,66.6,183.3z M180.3,249c4.4-2.1,7.9-5.1,7-11c-5.5,1.2-11,1.9-16.6,2.2C171.4,246.1,175.4,248,180.3,249z
				 M170.6,44.1c5.6,0.3,11.2,1,16.6,2.2c0.8-5.9-2.6-8.9-7-11C175.4,36.2,171.4,38.2,170.6,44.1z M145.1,46.3
				c5.5-1.2,11-1.9,16.6-2.2c-0.7-5.9-4.8-7.9-9.6-8.8C147.7,37.4,144.3,40.4,145.1,46.3z M68.2,137.7c0.3-5.6,1-11.2,2.2-16.6
				c-5.9-0.8-8.9,2.6-11,7C60.3,132.9,62.2,136.9,68.2,137.7z M59.3,156.2c2.1,4.4,5.1,7.9,11,7c-1.2-5.5-1.9-11-2.2-16.6
				C62.2,147.3,60.3,151.3,59.3,156.2z M214.1,94.2c4.6,0,9.1,0.7,13.5,1.9c-0.2-4.4-1-8.8-2.5-12.9c-4.1-1.5-8.5-2.3-12.9-2.5
				C213.5,85.1,214.1,89.6,214.1,94.2z M226.7,163.7c4.3-1.8,8.3-4.2,11.8-7.2c-2.1-4.1-4.8-7.9-8.1-11.2c-3.6,2.9-7.6,5.4-12,7.2
				C221.7,155.8,224.5,159.6,226.7,163.7z M227.7,50.6c-2.6-3.6-4.4-7.1-2.4-10.8c-2.2,3.5-6.2,3.8-10.6,3.3c2.1,2,3.9,4.1,5,6.4
				C222.2,49.3,224.9,49.8,227.7,50.6z M224.3,114.6c1.8-4.3,2.9-8.8,3.2-13.4c-4.4-1.4-9-2.2-13.6-2.1c-0.5,4.7-1.6,9.2-3.4,13.5
				C215.1,112.5,219.8,113.2,224.3,114.6z M225.3,244.4c-1.9-3.7-0.2-7.2,2.4-10.8c-2.8,0.8-5.5,1.3-8,1.1c-1.1,2.3-2.9,4.4-5,6.4
				C219.1,240.6,223,240.9,225.3,244.4z M48.1,142.1c4.2,0.1,6.3,3.5,8.2,7.5c0.7-2.8,1.6-5.4,3-7.5c-1.4-2.1-2.4-4.7-3-7.5
				C54.4,138.6,52.2,142,48.1,142.1z M249.3,69.7c-1.6-4.2-2.4-8,0.4-11.1c-3.1,2.9-6.9,2-11.1,0.5c1.5,2.4,2.7,5,3.2,7.5
				C244.3,67,246.8,68.2,249.3,69.7z M238.6,75.9c3.8,4.1,7.2,8.6,10.2,13.3c4.8-3.6,4.5-8.1,2.8-12.8
				C247.6,73.7,243.4,72.3,238.6,75.9z M249.7,225.6c-2.8-3.1-2.1-6.9-0.4-11.1c-2.4,1.5-5,2.7-7.5,3.2c-0.5,2.5-1.7,5-3.2,7.4
				C242.8,223.6,246.7,222.8,249.7,225.6z M248,108.2c4,4,7.3,8.7,9.7,13.9c-2.4-10.8-6.6-21.2-12.6-30.5
				C247,96.9,248,102.5,248,108.2z M147.2,216.4c-2.9-3.5-5.2-7.5-6.9-11.7c-4.2,1.8-8.7,2.9-13.2,3.4c1.9,4,4.3,7.7,7.3,10.9
				C138.7,218.8,143.1,218,147.2,216.4z M139,223.4c3,2.4,6.3,4.5,9.8,6c3.9-0.1,7.7-0.7,11.4-1.8c-3.5-2.1-6.7-4.6-9.6-7.4
				C146.9,221.8,143,222.9,139,223.4z M232.5,97.8c3.7,1.5,7.3,3.6,10.5,6c-0.4-3.8-1.3-7.6-2.7-11.2c-2.8-2.7-5.9-4.9-9.3-6.8
				C231.9,89.8,232.5,93.8,232.5,97.8z M219,59.4c4.7,3,9.2,6.4,13.3,10.2c3.7-4.7,2.2-9-0.6-13.1C227.1,55,222.6,54.7,219,59.4z
				 M228.8,168c1.8,4.2,2.9,8.7,3.4,13.2c4-1.9,7.7-4.3,11-7.3c-0.2-4.4-1.1-8.8-2.6-12.9C237,164,233,166.3,228.8,168z
				 M227.5,183.1c-0.3-4.6-1.4-9.2-3.2-13.4c-4.5,1.3-9.1,2-13.8,2c1.8,4.3,2.9,8.9,3.4,13.5C218.5,185.2,223.1,184.5,227.5,183.1z
				 M219.7,65.3c3.9,4.2,6.9,9,9.1,14.2c5.2,2.2,10.1,5.3,14.2,9.1C236.7,79.5,228.8,71.6,219.7,65.3z M149.7,49.9
				c5.7,0.2,11.3,1.4,16.5,3.6c5.2-2.2,10.8-3.4,16.5-3.6C171.8,48,160.6,48,149.7,49.9z M140.3,116.2c-1.7-4.1-2.8-8.5-3.3-12.9
				c-4.3-2-8.8-3.4-13.5-3.9c0.6,4.7,1.9,9.3,3.9,13.5C131.8,113.3,136.1,114.5,140.3,116.2z M138.6,200.2c-1.3-4.5-2-9.1-2-13.8
				c-4.3,1.8-8.9,2.9-13.5,3.4c0,4.6,0.7,9.2,2.1,13.6C129.8,203.1,134.4,202,138.6,200.2z M148.7,150.6
				c-7.4,3.3-13.7,8.6-18.3,15.4c7.9-1.6,15-5.3,20.8-10.6l2.4,1c-5.7,5.9-9.7,13.4-11.3,21.5c6.8-4.6,12.1-10.9,15.4-18.3
				c0.2-0.4,0.3-0.7,0.5-1.1l2.1,0.9c-0.2,0.4-0.3,0.7-0.4,1.1c-2.9,7.5-3.6,15.8-2,23.8c4.8-7.1,7.2-15.5,7.2-23.9l2.3,0
				c0,8.5,2.5,16.8,7.2,23.9c1.6-8,0.8-16.3-2-23.8c-0.1-0.4-0.3-0.7-0.4-1.1l2.1-0.9c0.2,0.4,0.3,0.7,0.5,1.1
				c3.3,7.4,8.6,13.7,15.4,18.3c-1.7-8.4-5.8-16-11.7-22l1.6-1.8c0.3,0.3,0.6,0.6,0.8,0.8c5.9,5.6,13.2,9.4,21.2,11
				c-4.6-6.8-10.9-12.1-18.3-15.4l0.9-2.2h0c7.5,2.9,15.8,3.6,23.8,2.1c-7.1-4.8-15.5-7.2-23.9-7.2l0-2.3c8.4,0,16.8-2.5,23.9-7.2
				c-8-1.6-16.3-0.8-23.8,2.1h0l-0.9-2.2c7.4-3.3,13.7-8.6,18.3-15.4c-8,1.6-15.4,5.4-21.2,11c-0.3,0.3-0.6,0.6-0.8,0.8l-2.3-1
				c0.3-0.3,0.5-0.5,0.8-0.7c5.9-6,10.1-13.6,11.7-22c-6.8,4.6-12.1,10.9-15.4,18.3c-0.2,0.4-0.3,0.7-0.5,1.1l-2.1-0.9
				c0.2-0.4,0.3-0.7,0.4-1.1c2.9-7.5,3.6-15.8,2-23.8c-4.8,7.1-7.2,15.5-7.2,23.9l-2.3,0c0-8.4-2.5-16.8-7.2-23.9
				c-1.6,8-0.9,16.3,2,23.8c0.1,0.4,0.3,0.7,0.4,1.1l-2.1,0.9c-0.2-0.4-0.3-0.7-0.5-1.1c-3.3-7.4-8.6-13.7-15.4-18.3
				c1.6,8.2,5.6,15.7,11.3,21.5l-2.4,1c-5.8-5.4-13-9.1-20.8-10.6c4.6,6.8,10.9,12.1,18.3,15.4l-0.9,2.2h0
				c-7.5-2.9-15.8-3.6-23.8-2.1c7.1,4.8,15.5,7.2,23.9,7.2l0,2.3c-8.4,0-16.8,2.5-23.9,7.2c8,1.6,16.3,0.9,23.8-2c0,0,0,0,0,0
				L148.7,150.6z M135.6,256.2c1.2-4,5-5.3,9.4-5.9c-2.5-1.4-4.8-3-6.5-4.9c-2.4,0.8-5.2,1.1-8.1,1
				C133.9,249.2,136.6,252.1,135.6,256.2z M135.6,28c0.9,4.1-1.7,7-5.1,9.8c2.9-0.1,5.6,0.2,8.1,1c1.7-1.9,4-3.5,6.5-4.9
				C140.6,33.2,136.8,32,135.6,28z M136.5,48.6c-2.2-5.6-6.7-6.4-11.6-6c-3.7,3.2-6.3,7-3.9,12.5C126,52.4,131.2,50.3,136.5,48.6z
				 M136.6,97.8c0-4.7,0.7-9.3,2-13.8c-4.3-1.8-8.8-2.9-13.4-3.2c-1.4,4.4-2.2,9-2.1,13.6C127.7,94.9,132.3,96,136.6,97.8z
				 M123,37.8c5.6-4.1,12.4-9,10.8-16.5c2.4,7.2,10.7,8.1,17.6,8.9c6.4-2.5,14.3-5.5,14.7-13.1c0.4,7.6,8.3,10.6,14.7,13.1
				c6.9-0.8,15.3-1.6,17.6-8.9c-1.6,7.4,5.3,12.4,10.8,16.5c6.9,1,15.1,2.4,19.3-4c-3.4,6.8,1.9,13.3,6.2,18.7
				c6.4,2.8,14,6.2,19.7,1.1c-5.1,5.7-1.6,13.3,1.2,19.7c5.4,4.3,11.9,9.6,18.7,6.2c-6.4,4.2-5,12.5-4,19.3
				c4.1,5.6,9,12.4,16.5,10.8c-7.2,2.4-8.1,10.7-8.9,17.6c2.5,6.5,5.5,14.3,13.1,14.7c-7.6,0.4-10.6,8.3-13.1,14.7
				c0.8,6.9,1.6,15.3,8.9,17.6c-7.5-1.6-12.4,5.3-16.5,10.8c-1,6.9-2.4,15.2,4,19.3c-6.8-3.4-13.3,1.9-18.7,6.2
				c-2.8,6.4-6.2,14-1.2,19.7c-5.7-5.1-13.3-1.6-19.7,1.1c-4.3,5.4-9.6,11.9-6.2,18.7c-4.2-6.4-12.4-5-19.3-4
				c-5.6,4.1-12.4,9-10.8,16.5c-2.4-7.2-10.7-8.1-17.6-8.8c-6.5,2.5-14.3,5.5-14.7,13.1c-0.4-7.6-8.3-10.6-14.7-13.1
				c-6.9,0.8-15.3,1.6-17.6,8.8c1.6-7.4-5.3-12.3-10.8-16.5c-6.9-1-15.2-2.4-19.3,4c3.4-6.8-1.9-13.3-6.2-18.7
				c-6.4-2.8-14-6.2-19.7-1.1c5.1-5.7,1.6-13.3-1.1-19.7c-5.4-4.3-11.9-9.6-18.7-6.2c6.4-4.2,5-12.5,4-19.3
				c-4.1-5.6-9-12.4-16.5-10.8c7.2-2.4,8.1-10.7,8.9-17.6c-2.5-6.4-5.5-14.3-13.1-14.7c7.6-0.4,10.6-8.3,13.1-14.7
				c-0.8-6.9-1.6-15.3-8.9-17.6c7.4,1.6,12.4-5.3,16.5-10.8c1-6.9,2.4-15.2-4-19.3c6.8,3.4,13.3-1.9,18.7-6.2
				c2.8-6.4,6.2-14,1.1-19.7c5.7,5.1,13.3,1.6,19.7-1.1c4.3-5.4,9.6-11.9,6.2-18.7C107.9,40.2,116.1,38.9,123,37.8z M107.1,244.4
				c2.2-3.5,6.2-3.8,10.6-3.3c-2.1-2-3.9-4.1-5-6.4c-2.5,0.2-5.3-0.3-8-1.1C107.3,237.2,109.1,240.7,107.1,244.4z M112.7,49.5
				c1.1-2.3,2.9-4.4,5-6.4c-4.4,0.5-8.4,0.2-10.6-3.3c2,3.7,0.2,7.2-2.4,10.8C107.4,49.8,110.2,49.3,112.7,49.5z M114,131.7
				c-3.3-3.3-6.1-7.1-8.3-11.2c-4.3,1.7-8.3,4.2-11.8,7.2c2.1,4.1,4.8,7.9,8.1,11.1C105.6,135.9,109.7,133.5,114,131.7z M113.3,59.4
				c-3.6-4.8-8.1-4.5-12.8-2.8c-2.8,4.1-4.3,8.3-0.6,13.1C104.2,65.9,108.6,62.5,113.3,59.4z M273,128c-2.1-4.4-5.1-7.9-11-7
				c1.2,5.5,1.9,11,2.2,16.6C270.1,136.9,272.1,132.9,273,128z M259.7,112.4c5.6-2.2,6.4-6.7,6-11.6c-3.2-3.7-6.9-6.3-12.5-3.9
				C255.9,101.9,258,107.1,259.7,112.4z M245,192.6c6-9.3,10.3-19.7,12.6-30.5c-2.4,5.2-5.6,9.9-9.7,13.9
				C248,181.7,247,187.3,245,192.6z M253.6,124.7c-1.6-3.5-3.6-6.8-6-9.8c-0.6,4-1.6,7.9-3.2,11.7c2.9,2.9,5.3,6.1,7.4,9.6
				C252.9,132.4,253.5,128.6,253.6,124.7z M253.6,159.5c-0.1-3.9-0.7-7.7-1.8-11.4c-2.1,3.5-4.5,6.7-7.4,9.6
				c1.6,3.7,2.6,7.7,3.2,11.7C250,166.3,252,163,253.6,159.5z M243.1,110.2c-3.3-3-7-5.4-11-7.3c-0.5,4.5-1.6,9-3.4,13.2
				c4.2,1.8,8.2,4.1,11.7,7C242,119,242.9,114.6,243.1,110.2z M219.7,218.9c9.1-6.3,17-14.2,23.3-23.4c-4.2,3.9-9,6.9-14.2,9.1
				C226.6,210,223.5,214.8,219.7,218.9z M240.3,191.6c1.4-3.6,2.3-7.4,2.7-11.2c-3.2,2.4-6.8,4.5-10.5,6c0,4-0.5,8.1-1.5,12
				C234.3,196.6,237.5,194.3,240.3,191.6z M231.8,227.6c2.8-4.1,4.3-8.3,0.6-13.1c-4.1,3.8-8.6,7.2-13.3,10.2
				C222.6,229.6,227.1,229.2,231.8,227.6z M230.4,138.9c3.3-3.3,6-7,8.1-11.1c-3.5-3-7.5-5.5-11.8-7.2c-2.2,4.1-5,7.9-8.3,11.2
				C222.7,133.5,226.8,135.9,230.4,138.9z M225.1,201c1.5-4.2,2.3-8.5,2.5-12.9c-4.4,1.3-8.9,1.9-13.5,1.9c0,4.6-0.6,9.1-1.9,13.5
				C216.6,203.3,220.9,202.5,225.1,201z M215.7,216.2c2.7-2.8,4.9-5.9,6.8-9.3c-3.9,1-8,1.5-12,1.5c-1.6,3.7-3.6,7.3-6,10.5
				C208.3,218.5,212.1,217.6,215.7,216.2z M213.3,129.9c3.5-3.2,6.5-6.9,8.8-11c-4.6-1.3-9.3-1.8-14-1.5c-2.2,3.9-4.9,7.5-8,10.7
				C204.6,128.1,209,128.7,213.3,129.9z M186.2,233.6c10.8-2.4,21.2-6.6,30.5-12.6c-5.3,2-11,3-16.6,3
				C196.1,227.9,191.4,231.2,186.2,233.6z M211.4,55c2.3-5.5-0.2-9.2-3.9-12.5c-4.9-0.4-9.4,0.5-11.6,6
				C201.2,50.3,206.4,52.4,211.4,55z M205.1,112.8c2.1-4.3,3.4-8.8,3.9-13.5c-4.7,0.6-9.3,1.9-13.5,3.9c-0.5,4.4-1.6,8.8-3.3,12.9
				C196.3,114.5,200.6,113.3,205.1,112.8z M198.1,219c3-3.3,5.4-6.9,7.3-10.9c-4.5-0.5-9-1.6-13.2-3.4c-1.8,4.2-4.1,8.2-7,11.7
				C189.3,218,193.7,218.8,198.1,219z M190.9,100.2c0.3-4.7-0.3-9.4-1.5-14c-4.1,2.3-7.8,5.3-11,8.8c1.2,4.3,1.9,8.8,1.9,13.2
				C183.4,105.1,187,102.4,190.9,100.2z M193.4,60.8c-3-2.4-6.3-4.5-9.8-6c-3.9,0.1-7.7,0.7-11.4,1.8c3.5,2,6.7,4.5,9.6,7.4
				C185.5,62.4,189.4,61.3,193.4,60.8z M149.7,234.3c10.9,2,22.1,2,33,0c-5.7-0.2-11.3-1.4-16.5-3.6
				C160.9,232.8,155.4,234,149.7,234.3z M187.8,81.6c-1.7-4.3-4.2-8.3-7.2-11.8c-4.1,2.1-7.9,4.8-11.2,8.1c3,3.6,5.4,7.6,7.2,12
				C179.9,86.6,183.7,83.8,187.8,81.6z M177.1,218c-4-2.2-7.7-4.9-10.9-8.2c-3.2,3.2-6.9,6-10.9,8.2c3.2,3,6.9,5.5,10.9,7.3
				C170.2,223.5,173.9,221,177.1,218z M173,93.9c-1.6-4.5-3.9-8.6-6.8-12.3c-2.9,3.7-5.2,7.9-6.8,12.3c2.8,3.5,5.1,7.4,6.8,11.5
				C167.9,101.3,170.2,97.4,173,93.9z M173,190.3c-2.8-3.5-5.1-7.4-6.8-11.5c-1.7,4.1-4,8-6.8,11.5c1.6,4.5,3.9,8.6,6.8,12.4
				C169.1,198.9,171.4,194.7,173,190.3z M152.1,249c4.8-0.9,8.9-2.9,9.6-8.8c-5.6-0.3-11.1-1-16.6-2.2
				C144.3,243.9,147.7,246.8,152.1,249z M155.8,89.9c1.8-4.3,4.2-8.3,7.1-12c-3.3-3.3-7-6-11.1-8.1c-3,3.5-5.4,7.5-7.2,11.8
				C148.7,83.8,152.5,86.6,155.8,89.9z M150.6,63.9c2.9-2.9,6.1-5.3,9.6-7.4c-3.7-1.1-7.5-1.7-11.4-1.8c-3.5,1.5-6.8,3.6-9.8,6
				C143,61.3,146.9,62.4,150.6,63.9z M132.3,60.3c4-4,8.7-7.3,13.9-9.7c-10.8,2.4-21.2,6.7-30.5,12.6
				C121,61.3,126.6,60.3,132.3,60.3z M115.7,220.9c9.3,6,19.7,10.3,30.5,12.6c-5.2-2.4-9.8-5.6-13.9-9.6
				C126.6,223.9,121,222.9,115.7,220.9z M136.9,181c0.5-4.4,1.6-8.8,3.3-12.9c-4.1,1.7-8.5,2.8-12.9,3.3c-2,4.3-3.4,8.8-3.9,13.5
				C128.1,184.3,132.7,183,136.9,181z M118,148.9c3.5-2.8,7.4-5.1,11.5-6.8c-4.1-1.7-8-4-11.5-6.8c-4.5,1.6-8.6,3.9-12.3,6.8
				C109.4,145,113.6,147.3,118,148.9z M121.9,75.8c1.6-3.7,3.6-7.3,6-10.5c-3.8,0.4-7.6,1.3-11.2,2.7c-2.7,2.8-5,5.9-6.8,9.3
				C113.8,76.4,117.9,75.8,121.9,75.8z M121.9,171.7c-4.7,0-9.3-0.7-13.8-2c-1.8,4.3-2.9,8.8-3.3,13.4c4.4,1.4,9,2.2,13.6,2.1
				C119,180.6,120.1,176,121.9,171.7z M118.3,94.2c0-4.6,0.7-9.1,1.9-13.5c-4.4,0.2-8.8,1-12.9,2.5c-1.5,4.2-2.3,8.5-2.5,12.9
				C109.2,94.8,113.7,94.2,118.3,94.2z M103.6,79.5c2.2-5.2,5.3-10.1,9.1-14.2c-9.1,6.3-17,14.3-23.3,23.3
				C93.5,84.8,98.3,81.7,103.6,79.5z M99.9,97.8c0-4.1,0.5-8.1,1.5-12c-3.4,1.8-6.6,4.1-9.3,6.8c-1.4,3.6-2.3,7.4-2.7,11.2
				C92.7,101.4,96.2,99.4,99.9,97.8z M84.4,108.2c0-5.7,1-11.3,3-16.6c-6,9.3-10.3,19.7-12.6,30.5C77.1,116.9,80.4,112.2,84.4,108.2
				z M87.4,192.6c-2-5.3-3-10.9-3-16.6c-4-4-7.3-8.7-9.7-13.9C77.1,173,81.4,183.3,87.4,192.6z M77.6,142.1
				c-2.2-5.2-3.4-10.8-3.6-16.5c-2,10.9-2,22.1,0,33C74.3,152.9,75.5,147.4,77.6,142.1z"/>
		</g>
	</g>
</g>
</svg>
